<svg width="47" height="51" viewBox="0 0 47 51" fill="none" xmlns="http://www.w3.org/2000/svg">
<path d="M6 19C6 11.268 12.268 5 20 5H40C43.866 5 47 8.13401 47 12V43C47 46.866 43.866 50 40 50H13C9.13401 50 6 46.866 6 43V19Z" fill="white"/>
<path d="M18.1641 16.0898H22.3828V42H18.1641V16.0898ZM35.7422 42H31.2773L26.3906 32.6133C26.3203 32.6133 26.2383 32.625 26.1445 32.6484C26.0742 32.6484 25.957 32.6484 25.793 32.6484C25.6289 32.6484 25.3828 32.6484 25.0547 32.6484C24.75 32.6484 24.3398 32.6484 23.8242 32.6484V29.5547H26.2148C26.7305 29.5547 27.2461 29.4727 27.7617 29.3086C28.2773 29.1211 28.7461 28.8281 29.168 28.4297C29.5898 28.0312 29.9297 27.4805 30.1875 26.7773C30.4453 26.0508 30.5742 25.1602 30.5742 24.1055C30.5742 23.6836 30.5156 23.2031 30.3984 22.6641C30.2812 22.1016 30.0352 21.5742 29.6602 21.082C29.3086 20.5664 28.8047 20.1445 28.1484 19.8164C27.4922 19.4648 26.625 19.2891 25.5469 19.2891H23.8242V16.0898H25.6172C26.7188 16.0898 27.8086 16.2656 28.8867 16.6172C29.9648 16.9688 30.9258 17.4961 31.7695 18.1992C32.6367 18.9023 33.3281 19.7578 33.8438 20.7656C34.3828 21.75 34.6523 22.8633 34.6523 24.1055C34.6523 25.9805 34.2188 27.5742 33.3516 28.8867C32.4844 30.1992 31.3125 31.1719 29.8359 31.8047L35.7422 42Z" fill="black"/>
<line x1="0.689303" y1="23.6082" x2="29.6893" y2="0.608173" stroke="#299492"/>
<line x1="0.694276" y1="17.6043" x2="22.6943" y2="0.604282" stroke="#299492"/>
</svg>
